<svg id="Layer_2" data-name="Layer 2" xmlns="http://www.w3.org/2000/svg" viewBox="0 0 223.9 293.25"><defs><style>.cls-1{fill:#fff;}</style></defs><title>logocomp</title><polygon class="cls-1" points="40.12 245.72 47.45 245.72 26.69 224.95 47.44 204.2 40.1 204.2 5.94 238.36 5.94 204.2 0.75 204.2 0.75 245.72 5.94 245.72 5.94 245.7 23.02 228.62 40.12 245.72"/><polygon class="cls-1" points="216.57 245.72 223.9 245.72 203.14 224.95 223.89 204.2 216.55 204.2 182.39 238.36 182.39 204.2 177.2 204.2 177.2 245.72 182.39 245.72 182.39 245.7 199.47 228.62 216.57 245.72"/><rect class="cls-1" x="52.64" y="204.2" width="5.19" height="41.52"/><polygon class="cls-1" points="106.81 204.2 104.54 204.2 104.54 204.2 86.38 230.88 68.21 204.2 68.21 204.2 68.21 204.2 65.94 204.2 63.02 204.2 63.02 245.72 65.94 245.72 68.21 245.72 68.21 245.72 68.21 213.42 78.65 228.76 86.38 240.53 94.06 228.82 104.54 213.42 104.54 245.72 106.81 245.72 109.73 245.72 109.73 204.2 106.81 204.2"/><polygon class="cls-1" points="158.71 204.2 156.44 204.2 156.44 204.2 138.28 230.88 120.11 204.2 120.11 204.2 120.11 204.2 117.84 204.2 114.92 204.2 114.92 245.72 117.84 245.72 120.11 245.72 120.11 245.72 120.11 213.42 130.55 228.76 138.27 240.53 145.96 228.82 156.44 213.42 156.44 245.72 158.71 245.72 161.63 245.72 161.63 204.2 158.71 204.2"/><rect class="cls-1" x="166.82" y="204.2" width="5.19" height="41.52"/><polygon class="cls-1" points="35.22 283.88 22.38 261.19 9.4 283.77 3.75 252.02 0.75 252.02 8.15 293.25 22.37 266.82 36.6 293.25 43.99 252.02 41 252.02 35.22 283.88"/><path class="cls-1" d="M72.17,263.87a20.56,20.56,0,1,0,20.56,20.56A20.58,20.58,0,0,0,72.17,263.87ZM90,284.43a17.87,17.87,0,1,1-17.87-17.87A17.89,17.89,0,0,1,90,284.43Z" transform="translate(-4.11 -11.8)"/><path class="cls-1" d="M132.46,274.6c0-8.63-6.85-10.25-6.92-10.26H97.34v40h2.77v-19.4h23.35l11.32,19.4h3l-11.4-19.55C128.23,284.27,132.46,282.37,132.46,274.6Zm-2.77,0c0,7.1-4.14,7.5-4.27,7.51h-25.3v-15H125.3C125.95,267.36,129.68,269.15,129.68,274.6Z" transform="translate(-4.11 -11.8)"/><polygon class="cls-1" points="142.64 252.49 139.87 252.49 139.87 292.45 142.64 292.45 142.64 274.44 146.08 272.64 179.83 292.89 179.83 289.93 148.72 271.27 179.83 255.03 179.83 252.12 142.64 271.52 142.64 252.49"/><path class="cls-1" d="M228,297.22v-6.45a8.19,8.19,0,0,0-2-6,6.64,6.64,0,0,0-4.63-1.9H196.85a3.65,3.65,0,0,1-2.86-1.14,6.17,6.17,0,0,1-1.18-3.93v-6.47a4.26,4.26,0,0,1,1-3.06,4.46,4.46,0,0,1,3-1.21H228v-2.77H196.85a6.35,6.35,0,0,0-5,2,7.64,7.64,0,0,0-1.66,5.06v6.47c0,2.77.72,4.87,2.14,6.23a6.15,6.15,0,0,0,4.52,1.62h24.48c4,0,4,4.88,4,5.08v6.47a4.41,4.41,0,0,1-1.12,3.28,4.08,4.08,0,0,1-2.93,1H190.18v2.77h31.14a6.32,6.32,0,0,0,4.95-2A7.76,7.76,0,0,0,228,297.22Z" transform="translate(-4.11 -11.8)"/><rect class="cls-1" y="0.01" width="6.02" height="192.68"/><rect class="cls-1" x="12.04" y="0.01" width="6.02" height="192.68"/><polygon class="cls-1" points="214.26 192.68 222.78 192.68 126.44 96.34 222.78 0.01 214.26 0.01 30.11 184.17 30.11 175.65 205.76 0 197.23 0.01 30.11 167.14 30.11 158.62 188.72 0.01 180.2 0.01 30.11 150.11 30.11 0.01 24.08 0.01 24.08 192.68 30.11 192.68 30.11 192.68 30.11 192.68 105.16 117.63 180.21 192.68 188.72 192.68 109.41 113.38 113.67 109.12 197.24 192.68 205.75 192.68 117.93 104.86 122.19 100.6 214.26 192.68"/></svg>