<svg id="Layer_2" data-name="Layer 2" xmlns="http://www.w3.org/2000/svg" viewBox="0 0 387 154.44"><defs><style>.cls-1{fill:#fff;}</style></defs><title>logo</title><polygon class="cls-1" points="68.28 72 81 72 44.99 35.98 80.97 0.01 68.24 0.01 9 59.25 9 0 0 0 0 72 9 72 9 71.98 38.63 42.35 68.28 72"/><polygon class="cls-1" points="374.28 72 387 72 350.99 35.98 386.97 0.01 374.25 0.01 315 59.25 315 0 306 0 306 72 315 72 315 71.98 344.63 42.35 374.28 72"/><rect class="cls-1" x="90" width="9" height="72"/><polygon class="cls-1" points="183.94 0 180 0 180 0.01 148.5 46.27 117 0 117 0 117 0 113.06 0 108 0 108 72 113.06 72 117 72 117 72 117 15.99 135.1 42.59 148.5 63 161.82 42.7 180 16 180 72 183.94 72 189 72 189 0 183.94 0"/><polygon class="cls-1" points="273.94 0 270 0 270 0.01 238.5 46.27 207 0 207 0 207 0 203.06 0 198 0 198 72 203.06 72 207 72 207 72 207 15.99 225.11 42.59 238.5 63 251.82 42.7 270 16 270 72 273.94 72 279 72 279 0 273.94 0"/><rect class="cls-1" x="288" width="9" height="72"/><polygon class="cls-1" points="59.78 138.18 37.51 98.83 15.01 137.99 5.2 82.94 0 82.94 12.83 154.44 37.5 108.61 62.17 154.44 75 82.94 69.8 82.94 59.78 138.18"/><path class="cls-1" d="M274.9,104a35.65,35.65,0,1,0,35.65,35.65A35.69,35.69,0,0,0,274.9,104Zm31,35.65a31,31,0,1,1-31-31A31,31,0,0,1,305.89,139.69Z" transform="translate(-162 -21)"/><path class="cls-1" d="M381.37,122.63c0-15-11.88-17.78-12-17.8l-48.89,0v69.3h4.8V140.46h40.49l19.63,33.65h5.12l-19.78-33.91C374,139.41,381.37,136.11,381.37,122.63Zm-4.8,0c0,12.32-7.17,13-7.41,13H325.28v-26H369C370.08,110.08,376.56,113.2,376.56,122.63Z" transform="translate(-162 -21)"/><polygon class="cls-1" points="243.25 83.98 238.45 83.98 238.45 153.28 243.25 153.28 243.25 122.04 249.22 118.93 307.75 154.05 307.75 148.91 253.8 116.54 307.75 88.39 307.75 83.33 243.25 116.98 243.25 83.98"/><path class="cls-1" d="M545.25,162.1V150.9c0-4.46-1.19-7.94-3.53-10.33a11.52,11.52,0,0,0-8-3.3H491.25a6.33,6.33,0,0,1-5-2c-2.26-2.54-2.05-6.72-2-6.82V117.25a7.39,7.39,0,0,1,1.81-5.31,7.74,7.74,0,0,1,5.2-2.1h54V105h-54c-3.75,0-6.67,1.16-8.69,3.45-3.17,3.6-2.88,8.63-2.87,8.77v11.22c0,4.8,1.25,8.44,3.72,10.8a10.67,10.67,0,0,0,7.84,2.81H533.7c6.91,0,7,8.46,7,8.82v11.22c0,2.52-.65,4.44-1.94,5.69a7.08,7.08,0,0,1-5.08,1.72h-54v4.8h54c3.68,0,6.56-1.14,8.58-3.4C545.4,167.45,545.27,162.58,545.25,162.1Z" transform="translate(-162 -21)"/></svg>